<?xml version="1.0" encoding="utf-8"?>
<svg viewBox="7.3061 122.849 477.1061 86.6" width="477.1061" height="86.6" xmlns="http://www.w3.org/2000/svg">
  <defs>
    <linearGradient gradientUnits="userSpaceOnUse" x1="4265.508" y1="-540.335" x2="4265.508" y2="325.665" id="gradient-0" gradientTransform="matrix(-0.999374, -0.035387, 0.041838, -1.181563, 8597.841348, 337.670129)">
      <stop offset="0" style="stop-color: rgb(243, 152, 44);"/>
      <stop offset="1" style="stop-color: rgb(245, 189, 123);"/>
    </linearGradient>
    <linearGradient gradientUnits="userSpaceOnUse" x1="1938.036" y1="321.097" x2="1938.036" y2="737.521" id="gradient-2">
      <stop offset="0" style="stop-color: rgb(41, 219, 225);"/>
      <stop offset="1" style="stop-color: rgb(22, 182, 187);"/>
    </linearGradient>
    <linearGradient gradientUnits="userSpaceOnUse" x1="220.887" y1="320" x2="220.887" y2="730.219" id="gradient-1">
      <stop offset="0" style="stop-color: rgb(41, 219, 225);"/>
      <stop offset="1" style="stop-color: rgb(22, 182, 187);"/>
    </linearGradient>
    <linearGradient gradientUnits="userSpaceOnUse" x1="2207.752" y1="320" x2="2207.752" y2="730" id="gradient-7">
      <stop offset="0" style="stop-color: rgb(41, 219, 225);"/>
      <stop offset="1" style="stop-color: rgb(22, 182, 187);"/>
    </linearGradient>
    <linearGradient gradientUnits="userSpaceOnUse" x1="630" y1="320.948" x2="630" y2="610" id="gradient-3">
      <stop offset="0" style="stop-color: rgb(41, 219, 225);"/>
      <stop offset="1" style="stop-color: rgb(22, 182, 187);"/>
    </linearGradient>
    <linearGradient gradientUnits="userSpaceOnUse" x1="948.045" y1="320" x2="948.045" y2="602.199" id="gradient-4">
      <stop offset="0" style="stop-color: rgb(41, 219, 225);"/>
      <stop offset="1" style="stop-color: rgb(22, 182, 187);"/>
    </linearGradient>
    <linearGradient gradientUnits="userSpaceOnUse" x1="1287.657" y1="320" x2="1287.657" y2="605.819" id="gradient-5">
      <stop offset="0" style="stop-color: rgb(41, 219, 225);"/>
      <stop offset="1" style="stop-color: rgb(22, 182, 187);"/>
    </linearGradient>
    <linearGradient gradientUnits="userSpaceOnUse" x1="2865.637" y1="321.48" x2="2865.637" y2="603.818" id="gradient-9">
      <stop offset="0" style="stop-color: rgb(41, 219, 225);"/>
      <stop offset="1" style="stop-color: rgb(22, 182, 187);"/>
    </linearGradient>
    <linearGradient gradientUnits="userSpaceOnUse" x1="1637.925" y1="320.612" x2="1637.925" y2="600" id="gradient-6">
      <stop offset="0" style="stop-color: rgb(41, 219, 225);"/>
      <stop offset="1" style="stop-color: rgb(22, 182, 187);"/>
    </linearGradient>
    <linearGradient gradientUnits="userSpaceOnUse" x1="2538.079" y1="320.851" x2="2538.079" y2="600" id="gradient-8">
      <stop offset="0" style="stop-color: rgb(41, 219, 225);"/>
      <stop offset="1" style="stop-color: rgb(22, 182, 187);"/>
    </linearGradient>
    <linearGradient gradientUnits="userSpaceOnUse" x1="3191.285" y1="321.536" x2="3191.285" y2="599.835" id="gradient-10">
      <stop offset="0" style="stop-color: rgb(41, 219, 225);"/>
      <stop offset="1" style="stop-color: rgb(22, 182, 187);"/>
    </linearGradient>
    <linearGradient gradientUnits="userSpaceOnUse" x1="3531.498" y1="320" x2="3531.498" y2="600" id="gradient-11">
      <stop offset="0" style="stop-color: rgb(41, 219, 225);"/>
      <stop offset="1" style="stop-color: rgb(22, 182, 187);"/>
    </linearGradient>
  </defs>
  <path d="M3969 918 c-75 -39 -121 -98 -138 -178 -6 -28 -11 -140 -11 -248 0 -186 1 -200 24 -247 29 -62 76 -107 141 -137 48 -22 60 -23 315 -23 307 0 329 5 400 81 77 84 83 108 84 359 1 248 -5 275 -78 348 -72 72 -69 72 -387 75 l-285 3 -65 -33z m169 -155 c6 -16 26 -18 219 -18 152 0 215 -3 224 -12 10 -10 9 -28 -4 -85 -9 -40 -19 -92 -23 -115 l-6 -43 -184 0 c-179 0 -184 -1 -184 -20 0 -20 5 -21 173 -19 l172 1 3 -31 3 -31 -190 0 c-105 0 -191 2 -191 3 0 11 -52 305 -56 320 -4 13 -16 17 -50 17 -40 0 -44 2 -44 25 0 24 2 25 65 25 53 0 67 -3 73 -17z m87 -409 c24 -24 15 -66 -18 -84 -27 -14 -29 -14 -48 9 -23 28 -24 54 -3 75 20 21 48 20 69 0z m287 -1 c22 -20 23 -56 2 -77 -21 -21 -40 -20 -64 4 -24 24 -25 47 -3 72 20 22 41 23 65 1z" style="fill: url('#gradient-0');" transform="matrix(0.1000000014901161, 0, 0, -0.1000000014901161, 6.003075122833248, 217.94905090332026)"/>
  <path d="M1868 733 c-27 -7 -30 -35 -26 -222 3 -192 4 -193 73 -189 l40 3 3 128 c2 98 6 127 16 127 19 0 67 40 61 51 -4 5 -22 9 -41 9 -32 0 -34 2 -34 34 0 51 -37 74 -92 59z" style="fill: url('#gradient-2');" transform="matrix(0.1000000014901161, 0, 0, -0.1000000014901161, 6.003075122833248, 217.94905090332026)"/>
  <path d="M45 718 c-11 -6 -24 -16 -28 -22 -11 -16 3 -348 16 -364 6 -8 26 -12 51 -10 l41 3 3 103 c1 56 7 102 11 102 5 0 16 -11 25 -25 14 -21 24 -25 61 -25 39 0 47 4 57 25 6 14 14 25 18 25 4 0 9 -40 12 -89 5 -101 15 -121 64 -121 51 0 55 17 52 212 l-3 172 -27 15 c-45 26 -74 7 -123 -79 -23 -41 -47 -76 -52 -77 -6 -2 -31 32 -56 75 -54 93 -75 107 -122 80z" style="fill: url('#gradient-1');" transform="matrix(0.1000000014901161, 0, 0, -0.1000000014901161, 6.003075122833248, 217.94905090332026)"/>
  <path d="M2087 719 c-22 -13 -21 -21 24 -210 16 -69 39 -140 49 -157 17 -27 25 -32 60 -32 51 0 60 14 94 151 37 149 38 176 3 202 -48 37 -69 9 -82 -108 -9 -70 -17 -58 -33 48 -13 84 -33 117 -70 117 -15 0 -35 -5 -45 -11z" style="fill: url('#gradient-7');" transform="matrix(0.1000000014901161, 0, 0, -0.1000000014901161, 6.003075122833248, 217.94905090332026)"/>
  <path d="M545 591 c-55 -25 -75 -58 -75 -125 0 -47 4 -60 30 -90 42 -47 85 -59 187 -54 96 5 103 10 103 78 0 128 -72 209 -185 210 -11 0 -38 -9 -60 -19z m104 -55 c32 -38 18 -161 -17 -154 -28 5 -54 67 -47 112 3 22 8 43 11 48 8 13 40 9 53 -6z" style="fill: url('#gradient-3');" transform="matrix(0.1000000014901161, 0, 0, -0.1000000014901161, 6.003075122833248, 217.94905090332026)"/>
  <path d="M954 599 c-10 -4 -38 -5 -60 -2 -33 4 -46 1 -62 -15 -18 -18 -19 -26 -11 -54 5 -18 14 -67 20 -108 6 -41 15 -81 21 -87 6 -7 30 -13 54 -13 51 0 53 3 56 124 3 87 0 83 81 100 28 7 36 29 15 42 -20 13 -93 21 -114 13z" style="fill: url('#gradient-4');" transform="matrix(0.1000000014901161, 0, 0, -0.1000000014901161, 6.003075122833248, 217.94905090332026)"/>
  <path d="M1292 565 c-33 -34 -48 -42 -54 -33 -4 7 -8 18 -8 24 0 18 -35 44 -58 44 -12 0 -31 -9 -42 -20 -18 -18 -19 -24 -8 -43 7 -12 15 -60 18 -106 7 -91 19 -111 70 -111 32 0 50 17 50 46 0 32 14 37 36 12 20 -22 95 -58 122 -58 8 0 24 7 33 16 18 16 15 20 -51 72 -39 30 -70 59 -70 64 0 11 45 52 83 75 15 10 27 21 27 25 0 11 -30 24 -69 32 -30 5 -38 2 -79 -39z" style="fill: url('#gradient-5');" transform="matrix(0.1000000014901161, 0, 0, -0.1000000014901161, 6.003075122833248, 217.94905090332026)"/>
  <path d="M2864 600 c-10 -4 -37 -5 -59 -2 -31 3 -44 0 -58 -16 -17 -18 -17 -27 -8 -74 6 -29 13 -78 16 -110 6 -50 9 -57 35 -68 15 -6 41 -10 56 -8 29 3 29 4 31 73 5 126 8 133 57 140 23 4 49 11 57 16 37 22 -77 66 -127 49z" style="fill: url('#gradient-9');" transform="matrix(0.1000000014901161, 0, 0, -0.1000000014901161, 6.003075122833248, 217.94905090332026)"/>
  <path d="M1533 580 c-41 -25 -53 -48 -53 -104 0 -64 14 -91 60 -122 73 -49 189 -43 240 11 30 32 18 45 -41 45 -38 0 -52 -4 -61 -20 -22 -34 -68 -19 -68 22 0 15 5 17 25 12 33 -8 105 27 134 66 l22 31 -21 29 c-30 43 -50 50 -132 50 -55 0 -81 -5 -105 -20z m138 -36 c11 -14 10 -20 -14 -40 -28 -24 -57 -32 -57 -15 0 4 5 22 11 40 12 34 38 41 60 15z" style="fill: url('#gradient-6');" transform="matrix(0.1000000014901161, 0, 0, -0.1000000014901161, 6.003075122833248, 217.94905090332026)"/>
  <path d="M2445 581 c-51 -31 -68 -57 -68 -105 0 -53 27 -104 69 -128 37 -22 110 -33 156 -24 37 7 107 60 96 71 -4 5 -29 10 -55 12 -40 4 -51 1 -67 -16 -11 -12 -25 -21 -32 -21 -12 0 -44 37 -44 50 0 3 23 5 50 6 43 0 55 5 86 35 58 56 60 65 21 104 -34 34 -38 35 -108 35 -55 0 -82 -5 -104 -19z m130 -46 c0 -11 -15 -29 -35 -43 l-35 -24 -3 22 c-5 32 25 72 51 68 14 -2 22 -10 22 -23z" style="fill: url('#gradient-8');" transform="matrix(0.1000000014901161, 0, 0, -0.1000000014901161, 6.003075122833248, 217.94905090332026)"/>
  <path d="M3060 571 c-24 -23 -30 -36 -25 -53 9 -31 60 -78 85 -78 46 0 120 -22 120 -36 0 -25 -28 -27 -101 -8 -70 18 -71 18 -85 -1 -13 -18 -13 -22 6 -37 67 -55 228 -46 278 15 36 43 -18 98 -116 117 -31 6 -68 16 -82 23 l-25 11 33 4 c18 2 53 -1 77 -6 45 -10 105 6 105 27 0 27 -55 45 -146 49 -93 4 -93 4 -124 -27z" style="fill: url('#gradient-10');" transform="matrix(0.1000000014901161, 0, 0, -0.1000000014901161, 6.003075122833248, 217.94905090332026)"/>
  <path d="M3432 580 c-57 -35 -76 -125 -41 -192 15 -27 108 -68 158 -68 81 0 172 64 130 91 -21 14 -92 0 -111 -22 -21 -25 -45 -24 -58 2 -15 27 -7 34 41 35 45 0 85 26 112 73 l19 31 -35 35 c-34 34 -38 35 -108 35 -57 0 -82 -5 -107 -20z m133 -40 c8 -26 -7 -45 -46 -59 -26 -9 -30 -8 -25 7 3 9 8 29 12 45 8 34 49 39 59 7z" style="fill: url('#gradient-11');" transform="matrix(0.1000000014901161, 0, 0, -0.1000000014901161, 6.003075122833248, 217.94905090332026)"/>
</svg>