<?xml version="1.0" encoding="utf-8"?>
<svg viewBox="199.5973 133.201 96.4091 86.6" width="96.4091" height="86.6" xmlns="http://www.w3.org/2000/svg">
  <defs>
    <linearGradient gradientUnits="userSpaceOnUse" x1="4265.508" y1="-540.335" x2="4265.508" y2="325.665" id="gradient-0" gradientTransform="matrix(-0.999374, -0.035387, 0.041838, -1.181563, 6713.784058, 234.150475)">
      <stop offset="0" style="stop-color: rgb(243, 152, 44);"/>
      <stop offset="1" style="stop-color: rgb(245, 189, 123);"/>
    </linearGradient>
  </defs>
  <path d="M 2084.942 814.48 C 2009.942 775.48 1963.942 716.48 1946.942 636.48 C 1940.942 608.48 1935.942 496.48 1935.942 388.48 C 1935.942 202.48 1936.942 188.48 1959.942 141.48 C 1988.942 79.48 2035.942 34.48 2100.942 4.48 C 2148.942 -17.52 2160.942 -18.52 2415.942 -18.52 C 2722.942 -18.52 2744.942 -13.52 2815.942 62.48 C 2892.942 146.48 2898.942 170.48 2899.942 421.48 C 2900.942 669.48 2894.942 696.48 2821.942 769.48 C 2749.942 841.48 2752.942 841.48 2434.942 844.48 L 2149.942 847.48 L 2084.942 814.48 Z M 2253.942 659.48 C 2259.942 643.48 2279.942 641.48 2472.942 641.48 C 2624.942 641.48 2687.942 638.48 2696.942 629.48 C 2706.942 619.48 2705.942 601.48 2692.942 544.48 C 2683.942 504.48 2673.942 452.48 2669.942 429.48 L 2663.942 386.48 L 2479.942 386.48 C 2300.942 386.48 2295.942 385.48 2295.942 366.48 C 2295.942 346.48 2300.942 345.48 2468.942 347.48 L 2640.942 348.48 L 2643.942 317.48 L 2646.942 286.48 L 2456.942 286.48 C 2351.942 286.48 2265.942 288.48 2265.942 289.48 C 2265.942 300.48 2213.942 594.48 2209.942 609.48 C 2205.942 622.48 2193.942 626.48 2159.942 626.48 C 2119.942 626.48 2115.942 628.48 2115.942 651.48 C 2115.942 675.48 2117.942 676.48 2180.942 676.48 C 2233.942 676.48 2247.942 673.48 2253.942 659.48 Z M 2340.942 250.48 C 2364.942 226.48 2355.942 184.48 2322.942 166.48 C 2295.942 152.48 2293.942 152.48 2274.942 175.48 C 2251.942 203.48 2250.942 229.48 2271.942 250.48 C 2291.942 271.48 2319.942 270.48 2340.942 250.48 Z M 2627.942 249.48 C 2649.942 229.48 2650.942 193.48 2629.942 172.48 C 2608.942 151.48 2589.942 152.48 2565.942 176.48 C 2541.942 200.48 2540.942 223.48 2562.942 248.48 C 2582.942 270.48 2603.942 271.48 2627.942 249.48 Z" style="fill: url('#gradient-0');" transform="matrix(0.1000000014901161, 0, 0, -0.1000000014901161, 6.003075122833248, 217.9490509033203)"/>
</svg>